<?xml version="1.0" encoding="utf-8"?>
<!-- Generator: Adobe Illustrator 24.0.0, SVG Export Plug-In . SVG Version: 6.00 Build 0)  -->
<svg version="1.1" id="Layer_1" xmlns="http://www.w3.org/2000/svg" xmlns:xlink="http://www.w3.org/1999/xlink" x="0px" y="0px"
	 viewBox="0 0 1395.9 1775.7" style="enable-background:new 0 0 1395.9 1775.7;" xml:space="preserve">
<style type="text/css">
	.st0{fill:#F5F3ED;}
	.st1{fill:#E24727;}
	.st2{fill:url(#SVGID_1_);}
	.st3{fill:none;}
	.st4{fill:url(#SVGID_2_);}
	.st5{fill:url(#SVGID_3_);}
	.st6{fill:url(#SVGID_4_);}
	.st7{fill:url(#SVGID_5_);}
	.st8{fill:url(#SVGID_6_);}
	.st9{fill:url(#SVGID_7_);}
	.st10{fill:url(#SVGID_8_);}
	.st11{fill:url(#SVGID_9_);}
	.st12{fill:url(#SVGID_10_);}
	.st13{fill:url(#SVGID_11_);}
	.st14{fill:url(#SVGID_12_);}
	.st15{fill:url(#SVGID_13_);}
	.st16{fill:url(#SVGID_14_);}
	.st17{fill:url(#SVGID_15_);}
</style>
<g id="Layer_2_1_">
</g>
<g id="Layer_1_1_">
	<g>
		<path class="st0" d="M1095,1458.8C1095,1458.8,1095,1458.8,1095,1458.8L1095,1458.8L1095,1458.8z"/>
		<path class="st0" d="M1095,1458.8l-1.7,1.7C1093.9,1459.9,1094.4,1459.4,1095,1458.8z"/>
		<path class="st1" d="M381.7,1327.3c-0.4-3-0.6-6-0.6-9.1c0-21.3,0-987.6,0-990.8c0-21-17.1-38.1-38.1-38.1S305,306.3,305,327.4
			c0,2.9,0.2,987.5,0.2,990.9c0,56.4,30.6,105.6,76.1,131.9v-122.9L381.7,1327.3L381.7,1327.3z"/>
		<path class="st1" d="M1067.2,1394.6c-0.8,0-588.6-0.4-610-0.4v74.7h-22.3c7.4,1.1,14.9,1.7,22.6,1.7c2.4,0,4.8-0.1,7.2-0.2
			c3.5,0.4,7.2,0.4,11.1,0.4h573c4.2,0,8.4,0,12.4-0.5c2,0.3,4,0.5,6,0.5c21.1,0,38.1-17.1,38.1-38.1S1088.3,1394.6,1067.2,1394.6z"
			/>
		<path class="st1" d="M457.2,1394.2C457.2,1394.2,457.2,1394.2,457.2,1394.2c-38.9,0-71-29.2-75.5-66.9h-0.4v122.9
			c16.2,9.4,34.3,15.9,53.6,18.7h22.3L457.2,1394.2L457.2,1394.2z"/>
		
			<linearGradient id="SVGID_1_" gradientUnits="userSpaceOnUse" x1="-194.0383" y1="377.075" x2="-118.2127" y2="377.075" gradientTransform="matrix(-1 0 0 -1 263.4817 1776)">
			<stop  offset="0" style="stop-color:#993333"/>
			<stop  offset="0.9988" style="stop-color:#E24727;stop-opacity:0.1"/>
		</linearGradient>
		<path class="st2" d="M457.2,1394.2C457.2,1394.2,457.2,1394.2,457.2,1394.2c-38.9,0-71-29.2-75.5-66.9h-0.4v122.9
			c16.2,9.4,34.3,15.9,53.6,18.7l22.6,1.7L457.2,1394.2L457.2,1394.2z"/>
		<path class="st3" d="M1067.2,1394.6c-0.8,0-1.6,0-2.4,0.1c-2.1-0.4-4.2-0.6-6.5-0.6c0,0-580,0.1-601.1,0.1
			c-42,0-76.1-34.1-76.1-76.1c0-21.3,0-987.6,0-990.8c0-21-17.1-38.1-38.1-38.1s-38.1,17.1-38.1,38.1c0,2.9,0.2,987.5,0.2,990.9
			c0,84.1,68.2,152.3,152.3,152.3c2.4,0,4.8-0.1,7.2-0.2c3.5,0.4,7.2,0.4,11.1,0.4h573c4.2,0,8.4,0,12.4-0.5c2,0.3,4,0.5,6,0.5
			c21.1,0,38.1-17.1,38.1-38.1C1105.3,1411.6,1088.3,1394.6,1067.2,1394.6z"/>
		<path class="st1" d="M228.7,1165.9c0-21.2,0-660.5,0-685.3l138.9-138.9l-45.9-45.9L165.2,451.4c-7.8,7-12.7,17.1-12.7,28.4
			c0,2.4,0,682,0,686c0,56.4,30.7,105.7,76.2,132.1V1165.9C228.7,1165.9,228.7,1165.9,228.7,1165.9z"/>
		<path class="st1" d="M1203.9,1240.2c0,0-877.4,2-899,2c-0.1,0-0.1,0-0.2,0v75.9h-9.6c3.2,0.2,6.5,0.3,9.8,0.3
			c5.8,0,897.9-1,897.9-1c10.1,0,19.8-4,26.9-11.2l1-1C1254.9,1281.2,1237.9,1240.2,1203.9,1240.2z"/>
		<path class="st0" d="M304.8,1242.1c-42-0.1-76-34.2-76.1-76.2v132c19.8,11.4,42.4,18.6,66.5,20.1h9.6V1242.1z"/>
		
			<linearGradient id="SVGID_2_" gradientUnits="userSpaceOnUse" x1="-41.2983" y1="534.05" x2="34.4177" y2="534.05" gradientTransform="matrix(-1 0 0 -1 263.4817 1776)">
			<stop  offset="0" style="stop-color:#B7B6B3"/>
			<stop  offset="0.9988" style="stop-color:#E24727"/>
		</linearGradient>
		<path class="st4" d="M304.8,1242.1c-42-0.1-76-34.2-76.1-76.2v132c19.8,11.4,42.4,18.6,66.5,20.1h9.6V1242.1z"/>
		<path class="st1" d="M1203.9,1240.2c0,0-877.4,2-899,2c-42.1,0-76.2-34.1-76.2-76.2c0-21.2,0-660.5,0-685.3l138.9-138.9
			l-45.9-45.9L165.2,451.4c-7.8,7-12.7,17.1-12.7,28.4c0,2.4,0,682,0,686c0,84.2,68.3,152.5,152.5,152.5c5.8,0,897.9-1,897.9-1
			c10.1,0,19.8-4,26.9-11.2l1-1C1254.9,1281.2,1237.9,1240.2,1203.9,1240.2z"/>
		
			<linearGradient id="SVGID_3_" gradientUnits="userSpaceOnUse" x1="533.62" y1="495.955" x2="609.167" y2="495.955" gradientTransform="matrix(1 0 0 -1 0 1776)">
			<stop  offset="0" style="stop-color:#993333"/>
			<stop  offset="0.9988" style="stop-color:#E24727;stop-opacity:0.1"/>
		</linearGradient>
		<rect x="533.6" y="1242.1" class="st5" width="75.9" height="75.9"/>
		
			<linearGradient id="SVGID_4_" gradientUnits="userSpaceOnUse" x1="533.62" y1="343.305" x2="609.167" y2="343.305" gradientTransform="matrix(1 0 0 -1 0 1776)">
			<stop  offset="0" style="stop-color:#993333"/>
			<stop  offset="0.9988" style="stop-color:#E24727;stop-opacity:0.1"/>
		</linearGradient>
		<rect x="533.6" y="1394.8" class="st6" width="75.9" height="75.9"/>
		<rect x="381.4" y="1242.1" class="st1" width="75.9" height="75.9"/>
		<linearGradient id="SVGID_5_" gradientUnits="userSpaceOnUse" x1="381.35" y1="1280.22" x2="457.24" y2="1280.22">
			<stop  offset="0" style="stop-color:#993333"/>
			<stop  offset="0.9988" style="stop-color:#E24727;stop-opacity:0.1"/>
		</linearGradient>
		<polygon class="st7" points="381.4,1318.2 457.2,1318.2 457.2,1242.3 381.4,1242.3 		"/>
		<path class="st1" d="M1084.3,1398.6c-8.4-4.2-18.6-2.4-25.2,4.3l-30,30.8l-113.3,113.3c-0.4,0-0.7,0-1.1,0c-3.5,0-295.9,0-305.1,0
			c-42.2,0-76.4-34.2-76.4-76.4c0-9,0.3-1279.9,0.3-1279.9c0-33.9-41-50.9-65-26.9l0,0c-7.1,7.1-11.1,16.8-11.1,26.9
			c0,0,0.3,1277.9,0.3,1279.9c0,84.4,67.8,152.9,152.2,152.9c0.2,0,304-0.2,304.9-0.2c11.8,0,22.2-5.3,29.2-13.7l149.3-149.1
			l1.7-1.7c0,0,0,0,0,0c6.4-6.8,10.3-16,10.3-26.1C1105.3,1417.8,1096.8,1404.8,1084.3,1398.6z"/>
		<path class="st1" d="M658.2,521.5l-46.5,61.8l505.3,505.3h-59.4c-8.2,0-16.1-3.3-21.9-9.1L665.8,709.6l-54.2,54.2l387.7,387.7
			c6,6,14.1,9.3,22.6,9.3h95.1l0,0l0,0h72.2l0,0h15.8c34.1,0,51.2-41.2,27.1-65.4L658.2,521.5z"/>
		<path class="st1" d="M871.2,1095.5L665.8,890.1l-54.1,54.1l144.4,144.4h-59.4c-8.2,0-16.1-3.3-21.9-9.1l-9-9l-54.1,54.1l26.7,26.7
			c6,6,14.1,9.4,22.6,9.4h76.2l101.2,0.1h5.7C878.2,1160.8,895.3,1119.6,871.2,1095.5z"/>
		<path class="st1" d="M1141.9,486.2l-525.6,525.6c-3,3-4.6,7-4.6,11.2v101.7L1196,540.3c24.1-24.1,7-65.4-27.1-65.4l0,0
			C1158.8,475,1149.1,479,1141.9,486.2z"/>
		<path class="st1" d="M972.6,475h-72.2h-36.1h-63.7c-5.4,0-10.7,2.2-14.5,6L616.3,650.8c-3,3-4.6,7-4.6,11.2v101.7l207.5-207.5
			c5.8-5.8,13.7-9.1,21.9-9.1h59.4L616.3,831.3c-3,3-4.6,7-4.6,11.2v101.7l403.9-403.9c24.1-24.1,7-65.4-27.1-65.4L972.6,475
			L972.6,475z"/>
		
			<linearGradient id="SVGID_6_" gradientUnits="userSpaceOnUse" x1="909.2025" y1="949.5831" x2="968.8804" y2="888.97" gradientTransform="matrix(1 0 0 -1 0 1776)">
			<stop  offset="0" style="stop-color:#993333"/>
			<stop  offset="0.587" style="stop-color:#E24727;stop-opacity:0.1"/>
		</linearGradient>
		<polygon class="st8" points="936.5,799.8 882.3,854 913.3,884.9 967.4,830.7 		"/>
		
			<linearGradient id="SVGID_7_" gradientUnits="userSpaceOnUse" x1="818.9783" y1="1039.8074" x2="878.6562" y2="979.1942" gradientTransform="matrix(1 0 0 -1 0 1776)">
			<stop  offset="0" style="stop-color:#993333"/>
			<stop  offset="0.587" style="stop-color:#E24727;stop-opacity:0.1"/>
		</linearGradient>
		<polygon class="st9" points="846.3,709.6 792.1,763.7 823,794.6 877.2,740.5 		"/>
		
			<linearGradient id="SVGID_8_" gradientUnits="userSpaceOnUse" x1="728.7499" y1="1130.0105" x2="788.3942" y2="1069.5275" gradientTransform="matrix(1 0 0 -1 0 1776)">
			<stop  offset="0" style="stop-color:#993333"/>
			<stop  offset="0.587" style="stop-color:#E24727;stop-opacity:0.1"/>
		</linearGradient>
		<polygon class="st10" points="756,619.3 701.9,673.5 732.8,704.4 787,650.3 		"/>
		
			<linearGradient id="SVGID_9_" gradientUnits="userSpaceOnUse" x1="638.8331" y1="1039.4926" x2="698.511" y2="978.8795" gradientTransform="matrix(1 0 0 -1 0 1776)">
			<stop  offset="0" style="stop-color:#993333"/>
			<stop  offset="0.587" style="stop-color:#E24727;stop-opacity:0.1"/>
		</linearGradient>
		<polygon class="st11" points="666.1,709.9 612,764 642.9,795 697,740.8 		"/>
		
			<linearGradient id="SVGID_10_" gradientUnits="userSpaceOnUse" x1="638.8326" y1="859.033" x2="698.5106" y2="798.4199" gradientTransform="matrix(1 0 0 -1 0 1776)">
			<stop  offset="0" style="stop-color:#993333"/>
			<stop  offset="0.587" style="stop-color:#E24727;stop-opacity:0.1"/>
		</linearGradient>
		<polygon class="st12" points="666.1,890.4 612,944.5 642.9,975.4 697,921.3 		"/>
		
			<linearGradient id="SVGID_11_" gradientUnits="userSpaceOnUse" x1="729.0646" y1="768.8011" x2="788.7425" y2="708.188" gradientTransform="matrix(1 0 0 -1 0 1776)">
			<stop  offset="0" style="stop-color:#993333"/>
			<stop  offset="0.587" style="stop-color:#E24727;stop-opacity:0.1"/>
		</linearGradient>
		<polygon class="st13" points="756.4,980.6 702.2,1034.7 733.1,1065.7 787.3,1011.5 		"/>
		
			<linearGradient id="SVGID_12_" gradientUnits="userSpaceOnUse" x1="638.7333" y1="678.4271" x2="698.3779" y2="617.9437" gradientTransform="matrix(1 0 0 -1 0 1776)">
			<stop  offset="0" style="stop-color:#993333"/>
			<stop  offset="0.587" style="stop-color:#E24727;stop-opacity:0.1"/>
		</linearGradient>
		<polygon class="st14" points="666,1070.9 611.9,1125.1 642.8,1156 696.9,1101.8 		"/>
		
			<linearGradient id="SVGID_13_" gradientUnits="userSpaceOnUse" x1="729.0665" y1="949.2592" x2="788.7444" y2="888.6461" gradientTransform="matrix(1 0 0 -1 0 1776)">
			<stop  offset="0" style="stop-color:#993333"/>
			<stop  offset="0.587" style="stop-color:#E24727;stop-opacity:0.1"/>
		</linearGradient>
		<polygon class="st15" points="756.4,800.1 702.2,854.3 733.1,885.2 787.3,831 		"/>
		
			<linearGradient id="SVGID_14_" gradientUnits="userSpaceOnUse" x1="819.2969" y1="859.0287" x2="878.9749" y2="798.4156" gradientTransform="matrix(1 0 0 -1 0 1776)">
			<stop  offset="0" style="stop-color:#993333"/>
			<stop  offset="0.587" style="stop-color:#E24727;stop-opacity:0.1"/>
		</linearGradient>
		<polygon class="st16" points="846.6,890.4 792.4,944.5 823.3,975.4 877.5,921.3 		"/>
		
			<linearGradient id="SVGID_15_" gradientUnits="userSpaceOnUse" x1="635.4268" y1="1223.3574" x2="695.0712" y2="1162.8743" gradientTransform="matrix(1 0 0 -1 0 1776)">
			<stop  offset="0" style="stop-color:#993333"/>
			<stop  offset="0.587" style="stop-color:#E24727;stop-opacity:0.1"/>
		</linearGradient>
		<polygon class="st17" points="662.7,526 612,576.7 612,583.6 639.5,611.1 693.6,556.9 		"/>
		<path class="st1" d="M627.5,475L627.5,475c34.1,0,51.2,41.2,27.1,65.4l-42.9,42.9v-92.4C611.7,482.1,618.8,475,627.5,475z"/>
	</g>
</g>
</svg>
