<svg width="106" height="32" viewBox="0 0 106 32" fill="none" xmlns="http://www.w3.org/2000/svg">
<path d="M106 16C106 20.4183 102.418 24 98 24C93.5817 24 90 20.4183 90 16C90 11.5817 93.5817 8 98 8C102.418 8 106 11.5817 106 16Z" fill="#D9D9D9"/>
<path d="M31.9693 17C31.4531 25.3707 24.5007 32 16 32C7.16344 32 0 24.8366 0 16C0 7.16344 7.16344 0 16 0C24.5007 0 31.4531 6.62927 31.9693 15H98V17H31.9693Z" fill="#D9D9D9"/>
<path d="M44.0001 15C32.0001 15 33 10 27 4.5V15H44.0001Z" fill="#D9D9D9"/>
<path d="M44.0001 17C32.0001 17 33 22 27 27.5V17H44.0001Z" fill="#D9D9D9"/>
<path d="M77 15C89 15 91 10.5 94.1511 9L94.1512 15H77Z" fill="#D9D9D9"/>
<path d="M77 17C89 17 91 21.5 94.1511 23L94.1512 17H77Z" fill="#D9D9D9"/>
</svg>
